<?xml version="1.0" encoding="utf-8"?>
<!-- Generator: Adobe Illustrator 22.1.0, SVG Export Plug-In . SVG Version: 6.00 Build 0)  -->
<svg version="1.1"
	 id="svg8" inkscape:version="0.92.1 r15371" sodipodi:docname="Logotipo_del_Gobierno_de_Canarias.svg" xmlns:cc="http://creativecommons.org/ns#" xmlns:dc="http://purl.org/dc/elements/1.1/" xmlns:inkscape="http://www.inkscape.org/namespaces/inkscape" xmlns:rdf="http://www.w3.org/1999/02/22-rdf-syntax-ns#" xmlns:sodipodi="http://sodipodi.sourceforge.net/DTD/sodipodi-0.dtd" xmlns:svg="http://www.w3.org/2000/svg"
	 xmlns="http://www.w3.org/2000/svg" xmlns:xlink="http://www.w3.org/1999/xlink" x="0px" y="0px" viewBox="0 0 805.419 202"
	 style="enable-background:new 0 0 805.419 202;" xml:space="preserve">
<style type="text/css">
	.st0{fill-rule:evenodd;clip-rule:evenodd;fill:#211915;}
	.st1{fill:#211915;}
	.st2{fill:#DA291C;}
	.st3{fill-rule:evenodd;clip-rule:evenodd;fill:#DA291C;}
	.st4{fill:#FFFFFF;}
</style>
<sodipodi:namedview  bordercolor="#666666" borderopacity="1.0" fit-margin-bottom="0" fit-margin-left="0" fit-margin-right="0" fit-margin-top="0" id="base" inkscape:current-layer="layer1" inkscape:cx="259.8137" inkscape:cy="404.12897" inkscape:document-units="mm" inkscape:pageopacity="0.0" inkscape:pageshadow="2" inkscape:window-height="705" inkscape:window-maximized="1" inkscape:window-width="1366" inkscape:window-x="-8" inkscape:window-y="-8" inkscape:zoom="0.35" pagecolor="#ffffff" showgrid="false">
	</sodipodi:namedview>
<g id="layer1" transform="translate(59.292969,-134.13374)" inkscape:groupmode="layer" inkscape:label="Layer 1">
	<g>
		<g>
			<path class="st0" d="M471.887,233.349c0,10.051,6.434,16.669,16.364,16.669c9.986,0,16.42-6.618,16.42-16.669
				c0-10.112-6.434-16.728-16.42-16.728C478.322,216.621,471.887,223.237,471.887,233.349L471.887,233.349L471.887,233.349z
				 M480.587,233.349c0-5.085,1.778-10.172,7.665-10.172c5.943,0,7.718,5.087,7.718,10.172c0,5.027-1.776,10.114-7.718,10.114
				C482.365,243.463,480.587,238.375,480.587,233.349L480.587,233.349L480.587,233.349z"/>
			<path class="st0" d="M508.614,249.161h8.273v-4.046h0.123c1.899,3.493,5.759,4.903,10.417,4.903
				c6.313,0,13.113-5.087,13.113-16.73c0-11.582-6.8-16.667-13.113-16.667c-3.922,0-7.844,1.468-9.99,4.715h-0.121v-15.926h-8.702
				V249.161L508.614,249.161L508.614,249.161z M531.841,233.349c0,5.271-2.272,10.114-7.418,10.114
				c-5.15,0-7.413-4.843-7.413-10.114c0-5.332,2.263-10.172,7.413-10.172C529.569,223.176,531.841,228.017,531.841,233.349
				L531.841,233.349L531.841,233.349z"/>
			<path class="st0" d="M544.602,249.161h8.704v-31.682h-8.704V249.161L544.602,249.161L544.602,249.161z M553.306,205.409h-8.704
				v7.166h8.704V205.409L553.306,205.409L553.306,205.409z"/>
			<path class="st0" d="M588.547,235.434c0.611-9.746-4.593-18.814-15.379-18.814c-9.625,0-16.18,7.234-16.18,16.728
				c0,9.806,6.19,16.669,16.18,16.669c7.166,0,12.375-3.186,14.826-10.664h-7.66c-0.552,1.96-3.37,4.108-6.863,4.108
				c-4.843,0-7.537-2.514-7.779-8.028H588.547L588.547,235.434L588.547,235.434z M565.692,229.918
				c0.119-2.454,1.715-6.742,7.227-6.742c4.227,0,6.131,2.33,6.926,6.742H565.692L565.692,229.918L565.692,229.918z"/>
			<path class="st1" d="M593.104,249.161h8.702v-14.279c0-5.577,2.207-10.17,8.581-10.17c1.042,0,2.33,0.119,3.125,0.305v-8.091
				c-0.552-0.184-1.289-0.305-1.902-0.305c-4.227,0-8.518,2.757-10.109,6.74h-0.123v-5.882h-8.273V249.161L593.104,249.161
				L593.104,249.161z"/>
			<path class="st1" d="M617.476,249.161h8.702v-16.604c0-6.437,2.023-9.074,6.744-9.074c4.041,0,5.574,2.573,5.574,7.786v17.893
				h8.704v-19.487c0-7.842-2.333-13.053-11.584-13.053c-3.677,0-7.476,1.715-9.683,5.271h-0.186v-4.414h-8.271V249.161
				L617.476,249.161L617.476,249.161z"/>
			<path class="st0" d="M651.639,233.349c0,10.051,6.432,16.669,16.364,16.669c9.986,0,16.42-6.618,16.42-16.669
				c0-10.112-6.434-16.728-16.42-16.728C658.071,216.621,651.639,223.237,651.639,233.349L651.639,233.349L651.639,233.349z
				 M660.339,233.349c0-5.085,1.778-10.172,7.665-10.172c5.94,0,7.718,5.087,7.718,10.172c0,5.027-1.778,10.114-7.718,10.114
				C662.117,243.463,660.339,238.375,660.339,233.349L660.339,233.349L660.339,233.349z"/>
			<path class="st1" d="M461.589,249.161h6.129v-23.654h-18.385v7.171h9.683c-0.552,6.064-4.167,9.434-10.417,9.434
				c-8.641,0-11.89-7.353-11.89-14.647c0-7.66,3.249-15.008,11.89-15.008c4.535,0,8.15,2.508,9.25,7.348h9.196
				c-1.042-9.928-9.497-15.439-18.445-15.439c-13.544,0-21.512,10.109-21.512,23.099c0,12.626,7.968,22.738,21.512,22.738
				c4.227,0,8.639-1.659,12.011-6.003L461.589,249.161L461.589,249.161L461.589,249.161z"/>
			<polygon class="st1" points="518.519,317.801 527.531,317.801 527.531,288.507 527.652,288.507 545.855,317.801 555.473,317.801 
				555.473,274.045 546.466,274.045 546.466,303.399 546.344,303.399 528.083,274.045 518.519,274.045 518.519,317.801 
				518.519,317.801 			"/>
			<path class="st0" d="M580.137,305.541c0,1.902-0.247,7.294-7.047,7.294c-2.818,0-5.33-0.799-5.33-4.043
				c0-3.19,2.449-4.108,5.148-4.658c2.694-0.489,5.761-0.548,7.229-1.836V305.541L580.137,305.541L580.137,305.541z M568.736,295.86
				c0.31-3.433,2.454-4.78,5.763-4.78c3.065,0,5.637,0.552,5.637,4.288c0,3.556-4.962,3.372-10.296,4.167
				c-5.393,0.734-10.781,2.449-10.781,9.622c0,6.497,4.777,9.501,10.781,9.501c3.862,0,7.907-1.044,10.664-3.924
				c0.061,1.044,0.305,2.083,0.613,3.067h8.823c-0.795-1.289-1.102-4.169-1.102-7.049v-16.483c0-7.602-7.597-9.007-13.91-9.007
				c-7.108,0-14.4,2.447-14.891,10.599H568.736L568.736,295.86L568.736,295.86z"/>
			<polygon class="st1" points="621.895,286.119 613.256,286.119 606.575,307.747 606.451,307.747 599.772,286.119 590.641,286.119 
				601.487,317.801 611.17,317.801 621.895,286.119 621.895,286.119 			"/>
			<path class="st0" d="M643.088,305.541c0,1.902-0.247,7.294-7.049,7.294c-2.818,0-5.33-0.799-5.33-4.043
				c0-3.19,2.452-4.108,5.148-4.658c2.696-0.489,5.761-0.548,7.231-1.836V305.541L643.088,305.541L643.088,305.541z M631.688,295.86
				c0.305-3.433,2.452-4.78,5.765-4.78c3.058,0,5.635,0.552,5.635,4.288c0,3.556-4.964,3.372-10.296,4.167
				c-5.393,0.734-10.785,2.449-10.785,9.622c0,6.497,4.782,9.501,10.785,9.501c3.862,0,7.905-1.044,10.664-3.924
				c0.061,1.044,0.305,2.083,0.611,3.067h8.825c-0.797-1.289-1.102-4.169-1.102-7.049v-16.483c0-7.602-7.597-9.007-13.91-9.007
				c-7.108,0-14.402,2.447-14.891,10.599H631.688L631.688,295.86L631.688,295.86z"/>
			<path class="st1" d="M657.198,317.801h8.704V303.52c0-5.579,2.205-10.172,8.576-10.172c1.042,0,2.328,0.123,3.127,0.31v-8.096
				c-0.55-0.18-1.289-0.301-1.902-0.301c-4.227,0-8.518,2.752-10.112,6.735h-0.121v-5.878h-8.273V317.801L657.198,317.801
				L657.198,317.801z"/>
			<path class="st0" d="M724.516,305.541c0,1.902-0.247,7.294-7.049,7.294c-2.82,0-5.33-0.799-5.33-4.043
				c0-3.19,2.449-4.108,5.146-4.658c2.696-0.489,5.761-0.548,7.234-1.836V305.541L724.516,305.541L724.516,305.541z M713.116,295.86
				c0.31-3.433,2.452-4.78,5.761-4.78c3.067,0,5.64,0.552,5.64,4.288c0,3.556-4.966,3.372-10.296,4.167
				c-5.393,0.734-10.787,2.449-10.787,9.622c0,6.497,4.782,9.501,10.787,9.501c3.859,0,7.905-1.044,10.662-3.924
				c0.061,1.044,0.305,2.083,0.613,3.067h8.823c-0.795-1.289-1.1-4.169-1.1-7.049v-16.483c0-7.602-7.599-9.007-13.91-9.007
				c-7.11,0-14.4,2.447-14.894,10.599H713.116L713.116,295.86L713.116,295.86z"/>
			<path class="st1" d="M681.662,317.801h8.706V303.52c0-5.579,2.205-10.172,8.576-10.172c1.042,0,2.328,0.123,3.125,0.31v-8.096
				c-0.552-0.18-1.286-0.301-1.899-0.301c-4.23,0-8.518,2.752-10.112,6.735h-0.121v-5.878h-8.275V317.801L681.662,317.801
				L681.662,317.801z"/>
			<path class="st0" d="M450.714,317.801h8.271v-43.756h-8.7v15.931h-0.119h0.058c-2.023-3.125-5.698-4.715-9.434-4.715
				c-9.317,0-14.036,7.9-14.036,16.423c0,8.758,4.656,16.975,14.216,16.975c4.046,0,7.599-1.475,9.622-4.901h0.121V317.801
				L450.714,317.801L450.714,317.801z M450.593,301.865c0,5.211-1.715,10.237-7.476,10.237c-5.393,0-7.66-5.213-7.66-10.175
				c0-5.211,1.96-10.116,7.66-10.116C448.757,291.812,450.593,296.717,450.593,301.865L450.593,301.865L450.593,301.865z"/>
			<path class="st0" d="M494.618,304.07c0.613-9.743-4.598-18.809-15.381-18.809c-9.62,0-16.178,7.229-16.178,16.723
				c0,9.806,6.19,16.674,16.178,16.674c7.168,0,12.379-3.19,14.833-10.664h-7.665c-0.55,1.962-3.368,4.108-6.863,4.108
				c-4.84,0-7.537-2.514-7.779-8.033H494.618L494.618,304.07L494.618,304.07z M471.764,298.558c0.121-2.454,1.711-6.746,7.229-6.746
				c4.227,0,6.129,2.333,6.924,6.746H471.764L471.764,298.558L471.764,298.558z"/>
		</g>
		<g>
			<polygon class="st1" points="-47.68,249.39 -38.668,249.39 -38.668,220.094 -38.545,220.094 -20.346,249.39 -10.722,249.39 
				-10.722,205.634 -19.731,205.634 -19.731,234.985 -19.857,234.985 -38.118,205.634 -47.68,205.634 -47.68,249.39 -47.68,249.39 
							"/>
			<path class="st0" d="M14.131,237.134c0,1.902-0.245,7.294-7.052,7.294c-2.815,0-5.33-0.799-5.33-4.046
				c0-3.188,2.452-4.106,5.15-4.658c2.696-0.492,5.761-0.552,7.231-1.841V237.134L14.131,237.134L14.131,237.134z M2.733,227.451
				c0.305-3.435,2.449-4.782,5.761-4.782c3.062,0,5.637,0.55,5.637,4.293c0,3.552-4.964,3.365-10.296,4.162
				c-5.395,0.736-10.787,2.454-10.787,9.627c0,6.495,4.782,9.501,10.787,9.501c3.859,0,7.905-1.044,10.664-3.929
				c0.061,1.044,0.308,2.088,0.613,3.067h8.825c-0.801-1.286-1.102-4.167-1.102-7.049v-16.483c0-7.599-7.602-9.012-13.91-9.012
				c-7.112,0-14.406,2.456-14.896,10.606H2.733L2.733,227.451L2.733,227.451z"/>
			<path class="st1" d="M30.791,249.39h8.704v-25.863h6.006v-5.819h-6.006v-1.904c0-2.631,0.981-3.615,3.307-3.615
				c1.107,0,2.149,0.058,3.192,0.184v-6.499c-1.473-0.061-3.067-0.24-4.6-0.24c-7.108,0-10.603,4.041-10.603,9.62v2.454h-5.204
				v5.819h5.204V249.39L30.791,249.39L30.791,249.39z"/>
			<path class="st0" d="M69.15,237.134c0,1.902-0.242,7.294-7.049,7.294c-2.818,0-5.33-0.799-5.33-4.046
				c0-3.188,2.449-4.106,5.148-4.658c2.696-0.492,5.759-0.552,7.231-1.841V237.134L69.15,237.134L69.15,237.134z M57.75,227.451
				c0.305-3.435,2.452-4.782,5.761-4.782c3.067,0,5.64,0.55,5.64,4.293c0,3.552-4.966,3.365-10.298,4.162
				c-5.393,0.736-10.785,2.454-10.785,9.627c0,6.495,4.78,9.501,10.785,9.501c3.861,0,7.907-1.044,10.666-3.929
				c0.061,1.044,0.305,2.088,0.611,3.067h8.825c-0.793-1.286-1.102-4.167-1.102-7.049v-16.483c0-7.599-7.597-9.012-13.91-9.012
				c-7.108,0-14.404,2.456-14.894,10.606H57.75L57.75,227.451L57.75,227.451z"/>
			<path class="st1" d="M83.402,249.39h8.702v-14.279c0-5.577,2.207-10.177,8.581-10.177c1.042,0,2.33,0.126,3.13,0.308v-8.087
				c-0.557-0.186-1.289-0.31-1.904-0.31c-4.23,0-8.518,2.757-10.112,6.744h-0.126v-5.882h-8.271V249.39L83.402,249.39L83.402,249.39
				z"/>
			<path class="st1" d="M107.729,249.39h8.704v-14.279c0-5.577,2.207-10.177,8.581-10.177c1.039,0,2.328,0.126,3.125,0.308v-8.087
				c-0.55-0.186-1.286-0.31-1.899-0.31c-4.227,0-8.515,2.757-10.112,6.744h-0.123v-5.882h-8.275V249.39L107.729,249.39
				L107.729,249.39z"/>
			<path class="st0" d="M129.872,233.578c0,10.051,6.437,16.674,16.364,16.674c9.99,0,16.425-6.623,16.425-16.674
				c0-10.114-6.434-16.732-16.425-16.732C136.309,216.845,129.872,223.464,129.872,233.578L129.872,233.578L129.872,233.578z
				 M138.576,233.578c0-5.087,1.778-10.172,7.66-10.172c5.945,0,7.721,5.085,7.721,10.172c0,5.027-1.776,10.112-7.721,10.112
				C140.354,243.689,138.576,238.604,138.576,233.578L138.576,233.578L138.576,233.578z"/>
			<path class="st0" d="M186.337,237.134c0,1.902-0.242,7.294-7.049,7.294c-2.818,0-5.33-0.799-5.33-4.046
				c0-3.188,2.452-4.106,5.148-4.658c2.696-0.492,5.761-0.552,7.231-1.841V237.134L186.337,237.134L186.337,237.134z
				 M174.941,227.451c0.301-3.435,2.449-4.782,5.761-4.782c3.062,0,5.635,0.55,5.635,4.293c0,3.552-4.964,3.365-10.296,4.162
				c-5.393,0.736-10.785,2.454-10.785,9.627c0,6.495,4.782,9.501,10.785,9.501c3.861,0,7.907-1.044,10.664-3.929
				c0.063,1.044,0.31,2.088,0.611,3.067h8.828c-0.795-1.286-1.1-4.167-1.1-7.049v-16.483c0-7.599-7.602-9.012-13.915-9.012
				c-7.108,0-14.402,2.456-14.894,10.606H174.941L174.941,227.451L174.941,227.451z"/>
			<polygon class="st1" points="200.643,249.39 209.347,249.39 209.347,238.483 212.719,235.232 221.418,249.39 231.961,249.39 
				218.664,229.35 230.614,217.707 220.316,217.707 209.347,229.103 209.347,205.634 200.643,205.634 200.643,249.39 
				200.643,249.39 			"/>
			<path class="st0" d="M230.901,233.578c0,10.051,6.439,16.674,16.364,16.674c9.988,0,16.425-6.623,16.425-16.674
				c0-10.114-6.437-16.732-16.425-16.732C237.34,216.845,230.901,223.464,230.901,233.578L230.901,233.578L230.901,233.578z
				 M239.605,233.578c0-5.087,1.778-10.172,7.66-10.172c5.947,0,7.721,5.085,7.721,10.172c0,5.027-1.774,10.112-7.721,10.112
				C241.384,243.689,239.605,238.604,239.605,233.578L239.605,233.578L239.605,233.578z"/>
			<path class="st1" d="M20.116,317.922h6.129v-23.663H7.86v7.175h9.685c-0.555,6.068-4.169,9.434-10.422,9.434
				c-8.639,0-11.89-7.353-11.89-14.647c0-7.66,3.251-15.013,11.89-15.013c4.535,0,8.15,2.512,9.254,7.353h9.196
				c-1.044-9.928-9.501-15.444-18.45-15.444c-13.542,0-21.512,10.114-21.512,23.104c0,12.626,7.97,22.738,21.512,22.738
				c4.23,0,8.643-1.655,12.013-6.003L20.116,317.922L20.116,317.922L20.116,317.922z"/>
			<path class="st0" d="M30.414,302.106c0,10.051,6.437,16.674,16.364,16.674c9.993,0,16.427-6.623,16.427-16.674
				c0-10.109-6.434-16.728-16.427-16.728C36.851,285.378,30.414,291.996,30.414,302.106L30.414,302.106L30.414,302.106z
				 M39.118,302.106c0-5.085,1.778-10.172,7.66-10.172c5.943,0,7.721,5.087,7.721,10.172c0,5.027-1.778,10.114-7.721,10.114
				C40.896,312.22,39.118,307.132,39.118,302.106L39.118,302.106L39.118,302.106z"/>
			<path class="st0" d="M67.145,317.922h8.277v-4.05h0.119c1.899,3.498,5.761,4.908,10.419,4.908
				c6.313,0,13.116-5.092,13.116-16.735c0-11.582-6.802-16.667-13.116-16.667c-3.92,0-7.844,1.468-9.988,4.719h-0.123v-15.935
				h-8.704V317.922L67.145,317.922L67.145,317.922z M90.375,302.106c0,5.271-2.268,10.114-7.418,10.114
				c-5.148,0-7.415-4.843-7.415-10.114c0-5.327,2.268-10.172,7.415-10.172C88.107,291.933,90.375,296.778,90.375,302.106
				L90.375,302.106L90.375,302.106z"/>
			<path class="st0" d="M253.417,305.662c0,1.902-0.245,7.294-7.047,7.294c-2.82,0-5.334-0.799-5.334-4.048
				c0-3.186,2.454-4.104,5.15-4.656c2.696-0.492,5.761-0.55,7.231-1.839V305.662L253.417,305.662L253.417,305.662z M242.019,295.979
				c0.305-3.435,2.452-4.782,5.761-4.782c3.062,0,5.637,0.55,5.637,4.293c0,3.556-4.964,3.368-10.296,4.167
				c-5.393,0.734-10.785,2.449-10.785,9.622c0,6.497,4.78,9.501,10.785,9.501c3.864,0,7.905-1.044,10.664-3.924
				c0.061,1.039,0.308,2.083,0.613,3.067h8.825c-0.797-1.289-1.102-4.169-1.102-7.054v-16.483c0-7.597-7.597-9.007-13.91-9.007
				c-7.112,0-14.404,2.452-14.896,10.601H242.019L242.019,295.979L242.019,295.979z"/>
			<path class="st0" d="M134.369,304.191c0.608-9.746-4.602-18.814-15.385-18.814c-9.62,0-16.18,7.229-16.18,16.728
				c0,9.806,6.192,16.674,16.18,16.674c7.168,0,12.379-3.188,14.829-10.664h-7.66c-0.55,1.955-3.368,4.104-6.863,4.104
				c-4.84,0-7.539-2.51-7.784-8.028H134.369L134.369,304.191L134.369,304.191z M111.505,298.673c0.126-2.452,1.717-6.74,7.234-6.74
				c4.227,0,6.124,2.326,6.924,6.74H111.505L111.505,298.673L111.505,298.673z"/>
			<path class="st1" d="M138.924,317.922h8.704v-14.283c0-5.577,2.205-10.17,8.578-10.17c1.039,0,2.328,0.119,3.127,0.305v-8.091
				c-0.552-0.186-1.289-0.305-1.899-0.305c-4.23,0-8.522,2.757-10.114,6.74h-0.121v-5.882h-8.275V317.922L138.924,317.922
				L138.924,317.922z"/>
			<path class="st1" d="M163.299,317.922h8.704v-16.609c0-6.441,2.023-9.074,6.74-9.074c4.043,0,5.579,2.573,5.579,7.786v17.898
				h8.702v-19.494c0-7.84-2.33-13.05-11.584-13.05c-3.677,0-7.476,1.715-9.681,5.271h-0.186v-4.414h-8.273V317.922L163.299,317.922
				L163.299,317.922z"/>
			<path class="st1" d="M228.212,286.235h-8.7v16.609c0,6.434-2.023,9.068-6.742,9.068c-4.046,0-5.577-2.573-5.577-7.779v-17.898
				h-8.702v19.487c0,7.844,2.328,13.057,11.584,13.057c3.675,0,7.476-1.72,9.681-5.271h0.184v4.414h8.271V286.235L228.212,286.235
				L228.212,286.235z"/>
		</g>
		<g>
			<path class="st2" d="M345.61,146.829l0.002-5.027c2.642,0.31,4.742,2.393,5.09,5.027H345.61L345.61,146.829L345.61,146.829z"/>
			<path class="st2" d="M345.61,148.304h5.087h0.013c-0.321,2.663-2.434,4.777-5.098,5.09L345.61,148.304L345.61,148.304
				L345.61,148.304z"/>
			<path class="st3" d="M344.187,153.394c-2.654-0.332-4.751-2.436-5.069-5.09h0.009h5.06V153.394L344.187,153.394L344.187,153.394z
				"/>
			<path class="st3" d="M344.187,146.829h-5.06l0,0c0.344-2.624,2.429-4.699,5.06-5.027V146.829L344.187,146.829L344.187,146.829z"
				/>
			<path class="st2" d="M376.473,202.735c-10.127-2.901-20.753-4.528-31.801-4.528c-10.839,0-21.321,1.554-31.238,4.391l0,0
				l-2.339-8.363h-0.072c10.698-3.112,21.959-4.746,33.649-4.746c11.899,0,23.371,1.704,34.21,4.887l0,0L376.473,202.735
				L376.473,202.735L376.473,202.735L376.473,202.735z"/>
			<path class="st2" d="M340.419,187.222c1.417-0.07,2.764,0,4.108,0c1.63,0,3.26,0,4.887,0.074v-32.014
				c-1.417-0.285-2.975-0.501-4.533-0.501c-1.558,0-3.047,0.141-4.463,0.429V187.222L340.419,187.222L340.419,187.222z"/>
			<path class="st2" d="M336.666,187.438c-3.538,0.285-7.081,0.64-10.556,1.134l0,0c-2.122-3.401-3.327-7.366-3.327-11.69
				c0-10.056,6.726-18.555,15.935-21.245v9.348c-4.319,2.193-7.222,6.728-7.222,11.897
				C331.495,181.205,333.55,185.033,336.666,187.438L336.666,187.438L336.666,187.438z"/>
			<path class="st2" d="M324.199,164.774c-1.771-0.781-3.68-1.275-5.736-1.275c-7.368,0-13.318,6.021-13.318,13.383
				c0,6.944,5.312,12.682,12.182,13.32l0,0c-4.389,0.923-8.711,2.193-12.958,3.612l0,0c-4.89-4.039-7.934-10.13-7.934-16.932
				c0-12.182,9.845-22.1,22.028-22.1c4.25,0,8.215,1.208,11.616,3.334l0,0C327.67,159.954,325.687,162.221,324.199,164.774
				L324.199,164.774L324.199,164.774L324.199,164.774z"/>
			<path class="st2" d="M353.241,187.438c3.54,0.285,7.081,0.64,10.554,1.134l0,0c2.124-3.401,3.399-7.366,3.399-11.69
				c0-10.056-6.728-18.555-16.007-21.245v9.348c4.319,2.193,7.294,6.728,7.294,11.897
				C358.481,181.205,356.427,185.033,353.241,187.438L353.241,187.438L353.241,187.438z"/>
			<path class="st2" d="M365.78,164.774c1.697-0.781,3.61-1.275,5.667-1.275c7.364,0,13.385,6.021,13.385,13.383
				c0,6.944-5.384,12.682-12.184,13.32h-0.07c4.391,0.923,8.783,2.193,12.963,3.612h0.072c4.813-4.039,7.932-10.13,7.932-16.932
				c0-12.182-9.916-22.1-22.098-22.1c-4.252,0-8.219,1.208-11.618,3.334l0,0C362.237,159.954,364.221,162.221,365.78,164.774
				L365.78,164.774L365.78,164.774L365.78,164.774z"/>
			<path class="st3" d="M344.8,326.839l-41.715-7.858c-6.659-0.997-11.755-6.448-11.755-13.457V205.236h107.013v100.289
				c0,7.009-5.099,12.46-11.755,13.457L344.8,326.839L344.8,326.839L344.8,326.839L344.8,326.839z"/>
			<polygon class="st4" points="340.132,261.405 344.703,256.836 349.276,261.405 344.703,265.981 340.132,261.405 340.132,261.405 
							"/>
			<path class="st4" d="M393.865,261.362c0-4.641-3.062-8.574-7.274-9.885v-21.831c4.212-1.307,7.274-5.238,7.274-9.88
				c0-5.711-4.634-10.35-10.345-10.35c-4.73,0-8.727,3.177-9.95,7.523h-18.906c-1.233-4.346-5.229-7.523-9.957-7.523
				c-4.728,0-8.724,3.177-9.948,7.523h-18.982c-1.23-4.346-5.226-7.523-9.959-7.523c-5.711,0-10.345,4.638-10.345,10.35
				c0,4.652,3.062,8.583,7.29,9.889v21.817c-4.227,1.307-7.29,5.24-7.29,9.889c0,4.652,3.062,8.583,7.29,9.889v22.001
				c-4.227,1.309-7.29,5.235-7.29,9.892c0,5.711,4.634,10.35,10.345,10.35c4.203,0,7.82-2.51,9.44-6.118l19.112,3.72
				c0.162,5.57,4.724,10.035,10.336,10.035c5.613,0,10.179-4.474,10.341-10.044l19.034-3.702c1.621,3.599,5.235,6.109,9.438,6.109
				c5.711,0,10.345-4.638,10.345-10.35c0-4.643-3.062-8.574-7.274-9.885v-22.017C390.803,269.936,393.865,266.005,393.865,261.362
				L393.865,261.362z M383.673,214.969c2.656,0,4.811,2.155,4.811,4.816c0,2.656-2.155,4.811-4.811,4.811
				c-2.66,0-4.816-2.155-4.816-4.811C378.857,217.124,381.012,214.969,383.673,214.969L383.673,214.969z M378.518,228.832
				c0.732,0.402,1.52,0.725,2.344,0.945v21.577c-3.516,0.936-6.309,3.684-7.292,7.182h-18.481c-0.278-1.132-0.736-2.182-1.34-3.139
				L378.518,228.832L378.518,228.832z M354.64,222.669h18.948c0.211,0.741,0.507,1.441,0.876,2.106l-24.942,26.743
				c-0.629-0.323-1.291-0.586-1.978-0.786v-21.009C350.953,228.753,353.643,226.073,354.64,222.669L354.64,222.669z M349.743,261.38
				c0,2.788-2.261,5.047-5.051,5.047c-2.791,0-5.054-2.259-5.054-5.047c0-2.795,2.263-5.058,5.054-5.058
				C347.482,256.322,349.743,258.585,349.743,261.38L349.743,261.38z M344.692,214.969c2.656,0,4.816,2.155,4.816,4.816
				c0,2.656-2.16,4.811-4.816,4.811c-2.658,0-4.813-2.155-4.813-4.811C339.878,217.124,342.034,214.969,344.692,214.969
				L344.692,214.969z M315.753,222.669h19.022c0.983,3.386,3.659,6.05,7.04,7.029v20.984c-0.835,0.222-1.63,0.543-2.371,0.943
				l-24.754-26.536C315.14,224.339,315.495,223.527,315.753,222.669L315.753,222.669z M335.296,255.59
				c-0.543,0.907-0.954,1.893-1.217,2.945h-18.302c-0.992-3.498-3.767-6.232-7.283-7.173v-21.595
				c0.705-0.191,1.374-0.449,2.003-0.772L335.296,255.59L335.296,255.59z M300.898,219.784c0-2.66,2.155-4.816,4.818-4.816
				c2.654,0,4.809,2.155,4.809,4.816c0,2.656-2.155,4.811-4.809,4.811C303.053,224.595,300.898,222.44,300.898,219.784
				L300.898,219.784z M300.898,261.38c0-2.66,2.155-4.816,4.818-4.816c2.654,0,4.809,2.155,4.809,4.816
				c0,2.656-2.155,4.811-4.809,4.811C303.053,266.192,300.898,264.036,300.898,261.38L300.898,261.38z M305.715,308.024
				c-2.663,0-4.818-2.155-4.818-4.811c0-2.654,2.155-4.813,4.818-4.813c2.654,0,4.809,2.16,4.809,4.813
				C310.524,305.868,308.369,308.024,305.715,308.024L305.715,308.024z M310.165,293.756c-0.534-0.247-1.084-0.453-1.67-0.611
				v-21.781c3.489-0.936,6.246-3.644,7.258-7.099h18.457c0.269,0.891,0.642,1.731,1.118,2.503L310.165,293.756L310.165,293.756z
				 M335.786,305.538l-19.718-3.83c-0.213-1.533-0.766-2.959-1.569-4.203L339.49,270.7c0.727,0.4,1.509,0.707,2.326,0.925v29.226
				C339.257,301.592,337.11,303.287,335.786,305.538L335.786,305.538z M344.692,315.782c-2.658,0-4.813-2.151-4.813-4.811
				c0-2.654,2.155-4.809,4.813-4.809c2.656,0,4.816,2.155,4.816,4.809C349.507,313.632,347.348,315.782,344.692,315.782
				L344.692,315.782z M373.273,301.708l-19.653,3.821c-1.334-2.259-3.507-3.967-6.077-4.697v-29.257
				c0.687-0.195,1.34-0.453,1.964-0.772l25.158,26.977C373.951,298.96,373.467,300.283,373.273,301.708L373.273,301.708z
				 M353.739,266.941c0.519-0.828,0.932-1.715,1.224-2.676h18.625c1.008,3.464,3.785,6.172,7.274,7.108v21.764
				c-0.696,0.184-1.358,0.44-1.985,0.763L353.739,266.941L353.739,266.941z M388.481,303.212c0,2.66-2.153,4.816-4.813,4.816
				c-2.656,0-4.811-2.155-4.811-4.816c0-2.654,2.155-4.809,4.811-4.809C386.328,298.404,388.481,300.559,388.481,303.212
				L388.481,303.212z M383.673,266.192c-2.66,0-4.816-2.155-4.816-4.811c0-2.66,2.155-4.816,4.816-4.816
				c2.656,0,4.811,2.155,4.811,4.816C388.484,264.036,386.328,266.192,383.673,266.192L383.673,266.192z"/>
		</g>
	</g>
</g>
</svg>
